<?xml version="1.0" encoding="UTF-8" standalone="no"?>
<!-- Created with Inkscape (http://www.inkscape.org/) -->

<svg
   width="18.52256mm"
   height="18.366167mm"
   viewBox="0 0 18.52256 18.366167"
   version="1.1"
   id="svg1"
   xml:space="preserve"
   xmlns:inkscape="http://www.inkscape.org/namespaces/inkscape"
   xmlns:sodipodi="http://sodipodi.sourceforge.net/DTD/sodipodi-0.dtd"
   xmlns="http://www.w3.org/2000/svg"
   xmlns:svg="http://www.w3.org/2000/svg"><sodipodi:namedview
     id="namedview1"
     pagecolor="#ffffff"
     bordercolor="#ffffff"
     borderopacity="0.25"
     inkscape:showpageshadow="2"
     inkscape:pageopacity="0.0"
     inkscape:pagecheckerboard="0"
     inkscape:deskcolor="#d1d1d1"
     inkscape:document-units="mm" /><defs
     id="defs1"><clipPath
       clipPathUnits="userSpaceOnUse"
       id="clipPath4"><rect
         style="fill:#1a1a1a;fill-opacity:0.364621;fill-rule:evenodd;stroke-width:0.421616"
         id="rect5"
         width="19.388988"
         height="19.412001"
         x="-3.2612813"
         y="135.00137" /></clipPath></defs><g
     inkscape:label="Layer 1"
     inkscape:groupmode="layer"
     id="layer1"
     transform="translate(-133.90128,-108.57562)"><path
       style="fill:#ffffff"
       d="m -2.281886,153.48079 -0.74586,-0.74586 3.99925997,-4.0021 3.99926003,-4.0021 -4.04062003,-4.04349 -4.04061997,-4.04349 0.74584,-0.74584 0.74584,-0.74584 4.04349,4.04062 4.04348,4.04062 4.0021,-3.99926 4.00211,-3.99926 0.74586,0.74587 0.74587,0.74586 -3.99926,4.0021 -3.99926,4.00211 3.99926,4.0021 3.99926,4.0021 -0.74587,0.74586 -0.74586,0.74587 -4.00211,-3.99926 -4.0021,-3.99926 -4.0021,3.99926 -4.0021,3.99926 z m -82.680907,-1.36525 v -1.05498 h 10.54973 10.54973 v 1.05498 1.05497 h -10.54973 -10.54973 z m 0,-7.38481 v -1.05498 h 10.54973 10.54973 v 1.05498 1.05497 h -10.54973 -10.54973 z m 0,-7.38482 v -1.05497 h 10.54973 10.54973 v 1.05497 1.05498 h -10.54973 -10.54973 z m 77.188847,-23.56106 v -4.9232 h 0.87914 c 0.75745,0 0.87915,0.0479 0.87915,0.34635 0,0.32849 0.033,0.32396 0.63993,-0.0879 0.49449,-0.33556 0.86417,-0.43362 1.62642,-0.43138 1.23853,0.004 2.1759,0.50308 2.91328997,1.55225 0.49003,0.69723 0.53479,0.88107 0.53479,2.19637 0,1.74577 -0.45944,2.72072 -1.59600997,3.3868 -0.95587,0.56017 -2.49334,0.58602 -3.3504,0.0563 l -0.59219,-0.366 v 1.5968 1.5968 h -0.96706 -0.96706 z m 4.5773,0.61243 c 1.45449,-0.75215 1.37674,-3.26222 -0.12042,-3.88777 -0.76852,-0.32111 -1.63985,-0.0855 -2.16836,0.58644 -0.50199,0.63818 -0.49049,2.11682 0.0215,2.76775 0.6286,0.79914 1.40181,0.98111 2.26724,0.53358 z m -88.938957,1.31201 c -3.63938,-1.81862 -3.50506,-7.33411 0.22087,-9.06914 1.44656,-0.6736 3.956,-0.52089 4.94634,0.30102 0.17416,0.14453 0.16449,0.3426 -0.047,0.9633 -0.14643,0.42974 -0.28972,0.78135 -0.31842,0.78135 -0.0287,0 -0.3971,-0.15651 -0.81866,-0.3478 -2.27399,-1.03185 -4.54679,0.41643 -4.54679,2.89732 0,2.53583 2.43194,3.9947 4.73989,2.84335 0.68204,-0.34025 0.76033,-0.29208 1.06303,0.65403 0.19712,0.61612 0.18612,0.7035 -0.11063,0.87914 -0.7578,0.44851 -1.45843,0.60858 -2.71907,0.62122 -1.15194,0.0115 -1.48172,-0.0601 -2.40956,-0.52379 z m 11.92144,0.25707 c -2.67981,-1.16211 -2.95385,-5.11246 -0.46154,-6.65334 1.51905,-0.93916 3.52673,-0.8144 4.79353,0.29786 0.99115,0.87024 1.34126,1.74126 1.26222,3.14013 -0.0822,1.45553 -0.69436,2.45682 -1.88676,3.08633 -0.92534,0.48853 -2.73335,0.55145 -3.70745,0.12902 z m 2.63424,-1.5651 c 0.7375,-0.38138 1.057,-0.93866 1.05625,-1.84237 -9.2e-4,-1.11507 -0.49893,-1.87055 -1.39152,-2.11089 -1.39166,-0.37474 -2.53466,0.54463 -2.53466,2.03873 0,1.6368 1.48775,2.62928 2.86993,1.91453 z m 4.71079,1.48435 c -1.00921,-0.5329 -1.10797,-0.88481 -0.40558,-1.44526 0.4953,-0.39521 0.61868,-0.42929 0.79313,-0.21909 0.59244,0.71384 2.28841,0.67021 2.28841,-0.0589 0,-0.42491 -0.20897,-0.58032 -1.43206,-1.06501 -0.54587,-0.21631 -1.16096,-0.57263 -1.36687,-0.79182 -0.88104,-0.93782 -0.78073,-2.42082 0.21163,-3.12864 0.81791,-0.58339 2.77758,-0.581 3.59832,0.004 0.7076,0.50471 0.71858,0.78241 0.0497,1.25866 -0.48916,0.34831 -0.5487,0.35379 -0.95462,0.0878 -0.24464,-0.1603 -0.68685,-0.25929 -1.01681,-0.22763 -0.48511,0.0465 -0.58388,0.12804 -0.58388,0.48176 0,0.36147 0.18411,0.50119 1.21976,0.92564 1.4907,0.61094 1.80627,0.88334 2.04336,1.76386 0.23431,0.87014 -0.17308,1.7948 -1.04731,2.37709 -0.78597,0.5235 -2.44183,0.54158 -3.39723,0.0371 z m 7.33542,0.11686 c -0.29011,-0.12662 -0.81566,-0.54949 -1.16788,-0.93969 -1.37135,-1.51927 -1.22516,-4.07304 0.31659,-5.53059 0.65707,-0.62118 1.29288,-0.84637 2.38969,-0.84637 1.92261,0 3.21266,1.22341 3.42126,3.24454 l 0.10066,0.97535 h -2.57411 c -2.21892,0 -2.57412,0.038 -2.57412,0.2753 0,1.29208 2.19199,1.95211 3.23351,0.97366 l 0.38568,-0.36233 0.65557,0.46644 0.65557,0.46645 -0.48709,0.51853 c -0.2679,0.28518 -0.7417,0.62746 -1.05289,0.76061 -0.71002,0.3038 -2.60452,0.30271 -3.30244,-0.002 z m 2.98566,-4.72318 c -0.24107,-0.82901 -1.33443,-1.26252 -2.27446,-0.90179 -0.24709,0.0948 -0.79911,0.9243 -0.79911,1.20076 0,0.0532 0.71744,0.0966 1.59431,0.0966 1.57022,0 1.59257,-0.006 1.47926,-0.39562 z m 4.75081,4.70977 c -1.68725,-0.87841 -2.44738,-3.06438 -1.75146,-5.03683 0.69354,-1.96568 2.915,-2.87069 4.6992,-1.91441 l 0.65675,0.352 v -1.67072 -1.67072 h 0.96706 0.96706 v 5.01113 5.01112 h -0.87914 c -0.66425,0 -0.87915,-0.0645 -0.87915,-0.26375 0,-0.34409 -0.15928,-0.33322 -0.57051,0.0389 -0.46924,0.42466 -2.49557,0.51508 -3.20981,0.14324 z m 3.01457,-1.87649 c 1.17995,-1.1085 0.65662,-3.43534 -0.83996,-3.73465 -1.13021,-0.22605 -2.26252,0.7972 -2.26252,2.04459 0,1.84676 1.8582,2.859 3.10248,1.69006 z m 38.481027,1.71925 c -3.0308,-1.41759 -3.85505,-5.41358 -1.63653,-7.93395 1.04776,-1.19032 2.15551,-1.66976 3.86299,-1.67194 1.1794,-0.002 1.48618,0.07 2.4616,0.57346 1.84649,0.95312 2.726,2.63033 2.56587,4.89303 -0.1054,1.48927 -0.79981,2.82532 -1.85879,3.57631 -1.07567,0.76282 -1.69521,0.94935 -3.19728,0.96263 -1.03159,0.009 -1.51013,-0.0779 -2.19786,-0.39954 z m 3.59669,-1.69133 c 1.13511,-0.57909 1.62878,-1.49931 1.61704,-3.01425 -0.01,-1.22816 -0.60149,-2.24332 -1.60254,-2.74812 -2.14642,-1.08238 -4.40242,0.38179 -4.40242,2.85722 0,2.4321 2.31318,3.96361 4.38792,2.90515 z m 15.39282,1.86198 c -0.29011,-0.12662 -0.81566,-0.54949 -1.16788,-0.93969 -1.38281003,-1.53198 -1.23805003,-4.06085 0.31659,-5.53059 0.65708,-0.62118 1.29288,-0.84637 2.38969,-0.84637 1.92262,0 3.21266,1.22341 3.42126,3.24454 l 0.10066,0.97535 h -2.57411 c -2.21892,0 -2.57412,0.038 -2.57412,0.2753 0,1.29208 2.19199,1.95211 3.23351,0.97366 l 0.38568,-0.36233 0.65557,0.46644 0.65557,0.46645 -0.48709,0.51853 c -0.2679,0.28518 -0.7417,0.62746 -1.05289,0.76061 -0.71002,0.3038 -2.60452,0.30271 -3.30244,-0.002 z m 2.98566,-4.72318 c -0.24107,-0.82901 -1.33443,-1.26252 -2.27446,-0.90179 -0.24709,0.0948 -0.79911,0.9243 -0.79911,1.20076 0,0.0532 0.71744,0.0966 1.59431,0.0966 1.57022,0 1.59257,-0.006 1.47926,-0.39562 z m 12.57085,4.57155 c -2.09951,-1.0619 -2.57681,-4.15974 -0.94052,-6.10436 0.99748,-1.18544 3.46017,-1.42206 4.72889,-0.45436 0.73199,0.55832 1.22573,1.53237 1.40836,2.7784 l 0.12241,0.83519 h -2.6574 c -2.96338,0 -3.07469,0.0549 -2.16816,1.06948 0.69484,0.77767 1.80698,0.89375 2.70256,0.2821 l 0.64228,-0.43865 0.58852,0.49167 0.58853,0.49168 -0.35166,0.38928 c -0.99795,1.10474 -3.17495,1.41262 -4.66381,0.65957 z m 3.16926,-4.4723 c 0,-0.54905 -0.71453,-1.11026 -1.41356,-1.11026 -0.75125,0 -1.57553,0.55861 -1.57553,1.06773 0,0.30806 0.13598,0.3389 1.49455,0.3389 1.28439,0 1.49454,-0.0417 1.49454,-0.29637 z m 4.36757,4.36037 c -1.17932,-0.74791 -1.60947,-1.7358 -1.52871,-3.51095 0.0518,-1.13788 0.14428,-1.49384 0.54605,-2.10094 0.94611,-1.42964 3.07617,-1.91545 4.41494,-1.00693 l 0.63994,0.43427 v -1.75299 -1.75299 h 0.96706 0.96706 v 5.01113 5.01112 h -0.96706 c -0.73814,0 -0.96706,-0.0618 -0.96706,-0.26116 0,-0.21309 -0.10517,-0.19704 -0.57145,0.0873 -0.9108,0.55532 -2.4884,0.48421 -3.50077,-0.15782 z m 3.023,-1.34163 c 1.45449,-0.75215 1.37674,-3.26222 -0.12043,-3.88777 -0.76851,-0.32111 -1.63984,-0.0855 -2.16835,0.58644 -0.502,0.63818 -0.49049,2.11682 0.0215,2.76775 0.6286,0.79914 1.40181,0.98111 2.26724,0.53358 z m -114.294487,-3.33777 v -5.01113 h 0.96706 0.96706 v 5.01113 5.01112 h -0.96706 -0.96706 z m 94.244247,1.40663 v -3.60449 h 0.96706 c 0.87568,0 0.96706,0.0361 0.96706,0.3823 v 0.38231 l 0.44198,-0.41522 c 0.65122,-0.61179 2.27096,-0.70812 2.94623,-0.17522 0.92691,0.73149 1.06794,1.25461 1.14993,4.2655 l 0.0754,2.76931 h -0.98807 -0.98806 v -2.29734 c 0,-2.86051 -0.18682,-3.32089 -1.34991,-3.32649 -0.39614,-0.002 -0.66471,0.1321 -0.9231,0.46059 -0.32739,0.4162 -0.36442,0.70209 -0.36442,2.81326 v 2.34998 h -0.96706 -0.96706 z"
       id="path2"
       clip-path="url(#clipPath4)"
       transform="matrix(0.95531328,0,0,0.95531328,137.01682,-20.392992)" /></g></svg>
